<svg width="172" height="46" viewBox="0 0 172 46" fill="none" xmlns="http://www.w3.org/2000/svg">
<g clip-path="url(#clip0_2019_304)">
<path d="M48.6723 11.6769H42.6866L41.1278 15.1353H38.855L45.775 0L52.4505 15.1353H50.1415L48.6747 11.6769H48.6723ZM47.813 9.658L45.7387 4.81668L43.5652 9.658H47.813Z" fill="#520B10"/>
<path d="M53.8447 15.1353V0.894806H55.9456C56.8823 0.894806 57.6278 0.968757 58.1821 1.11666C58.7436 1.26456 59.218 1.51353 59.6029 1.86356C59.995 2.22592 60.3072 2.67949 60.5348 3.21933C60.7695 3.76657 60.8881 4.3212 60.8881 4.88077C60.8881 5.90129 60.5057 6.76652 59.7384 7.47152C60.4815 7.73035 61.0672 8.18145 61.4957 8.82729C61.9313 9.46573 62.1468 10.2102 62.1468 11.0606C62.1468 12.1748 61.7595 13.114 60.9874 13.8831C60.5227 14.3564 59.9998 14.6867 59.4214 14.8691C58.7872 15.0466 57.9933 15.1378 57.0397 15.1378H53.8423L53.8447 15.1353ZM55.9553 7.01056H56.6161C57.4003 7.01056 57.9764 6.83307 58.3418 6.48057C58.7073 6.12807 58.8889 5.60549 58.8889 4.91774C58.8889 4.23 58.7025 3.73946 58.3273 3.39189C57.9522 3.04432 57.41 2.87176 56.696 2.87176H55.9529V7.01302L55.9553 7.01056ZM55.9553 13.1164H57.2599C58.2136 13.1164 58.9131 12.9266 59.3608 12.5446C59.8328 12.1329 60.0676 11.6103 60.0676 10.9768C60.0676 10.3433 59.8401 9.84534 59.3875 9.42629C58.947 9.01463 58.1579 8.80756 57.0227 8.80756H55.9529V13.114L55.9553 13.1164Z" fill="#520B10"/>
<path d="M64.4607 15.1353V0.894806H67.3942C68.8005 0.894806 69.9115 1.03531 70.7272 1.31879C71.6034 1.59488 72.3973 2.0657 73.1089 2.72879C74.5514 4.06977 75.2727 5.8298 75.2727 8.01382C75.2727 10.1978 74.52 11.9751 73.0169 13.326C72.2617 14.0014 71.4702 14.4722 70.6449 14.7384C69.8728 15.0022 68.7763 15.1353 67.3579 15.1353H64.4607ZM66.5689 13.1164H67.5201C68.4689 13.1164 69.2555 13.0154 69.8849 12.8132C70.5117 12.5988 71.0805 12.2561 71.5864 11.7903C72.6248 10.824 73.1452 9.56679 73.1452 8.01875C73.1452 6.47071 72.632 5.19136 71.6058 4.21767C70.6812 3.34998 69.3209 2.91613 67.5201 2.91613H66.5689V13.1164Z" fill="#520B10"/>
<path d="M85.0996 11.6769H79.1139L77.5552 15.1353H75.2824L82.2024 0L88.8779 15.1353H86.5688L85.102 11.6769H85.0996ZM84.2404 9.658L82.1661 4.81668L79.9925 9.658H84.2404Z" fill="#520B10"/>
<path d="M92.3827 0.894806V13.1164H96.495V15.1353H90.2721V0.894806H92.3827Z" fill="#520B10"/>
<path d="M100.254 0.894806V13.1164H104.366V15.1353H98.1433V0.894806H100.254Z" fill="#520B10"/>
<path d="M115.009 11.6769H109.023L107.464 15.1353H105.192L112.109 0L118.785 15.1353H116.476L115.009 11.6769ZM114.147 9.658L112.073 4.81668L109.899 9.658H114.147Z" fill="#520B10"/>
<path d="M122.289 6.46578H128.321V0.894806H130.432V15.1353H128.321V8.48464H122.289V15.1353H120.179V0.894806H122.289V6.46578Z" fill="#520B10"/>
<path d="M44.9932 24.5789L47.5492 27.7242L47.6315 27.6306C47.9074 27.3249 48.1664 27.0266 48.4133 26.7333C48.6578 26.44 48.895 26.1442 49.1201 25.8434L50.5166 27.3027C50.3448 27.5517 50.1197 27.8426 49.8413 28.1729C49.563 28.5032 49.2314 28.8853 48.8441 29.3142L51.4727 32.6173H48.8078L47.3919 30.8474C46.0921 32.2131 44.7415 32.8959 43.3401 32.8959C42.0839 32.8959 41.0189 32.4867 40.1427 31.6708C39.2859 30.8474 38.855 29.8294 38.855 28.6191C38.855 27.177 39.5352 25.979 40.8955 25.025L41.8225 24.3792C41.8346 24.3718 41.8564 24.357 41.8878 24.3324C41.9193 24.3077 41.9604 24.2732 42.0161 24.2288C41.0794 23.2108 40.6098 22.21 40.6098 21.2239C40.6098 20.2379 40.9221 19.459 41.5465 18.8477C42.1831 18.2363 43.0036 17.9307 44.0105 17.9307C45.0174 17.9307 45.7896 18.2265 46.4285 18.8205C47.0651 19.4146 47.3846 20.1615 47.3846 21.0662C47.3846 21.6898 47.2103 22.2543 46.8618 22.7597C46.5181 23.265 45.896 23.8714 44.9957 24.5764L44.9932 24.5789ZM43.2941 25.804L43.1755 25.8878C42.2993 26.5065 41.7015 27.002 41.3844 27.3767C41.0721 27.7514 40.9148 28.1482 40.9148 28.5648C40.9148 29.1638 41.1496 29.7135 41.6216 30.2115C42.1105 30.6921 42.6503 30.9313 43.2384 30.9313C44.0662 30.9313 45.0174 30.3791 46.0969 29.2748L43.2941 25.8015V25.804ZM43.754 23.0431L43.9282 22.9125C44.2284 22.6808 44.4753 22.4811 44.6737 22.3086C44.8698 22.136 45.0102 21.993 45.0973 21.8723C45.2813 21.6405 45.3732 21.3571 45.3732 21.0194C45.3732 20.6397 45.2474 20.3291 44.9957 20.0925C44.7439 19.8559 44.4075 19.7375 43.9839 19.7375C43.5991 19.7375 43.2723 19.8583 43.0109 20.1024C42.7471 20.3341 42.6164 20.6299 42.6164 20.9922C42.6164 21.4162 42.781 21.8353 43.1126 22.2469L43.6451 22.9026C43.6644 22.9347 43.7007 22.9815 43.7564 23.0431H43.754Z" fill="#520B10"/>
<path d="M66.1114 29.4399H60.1257L58.567 32.8983H56.2942L63.2142 17.763L69.8897 32.8983H67.5806L66.1138 29.4399H66.1114ZM65.2522 27.421L63.1779 22.5797L61.0043 27.421H65.2522Z" fill="#520B10"/>
<path d="M70.2649 32.8983V18.6578H72.3658C73.3025 18.6578 74.048 18.7318 74.6023 18.8797C75.1638 19.0276 75.6382 19.2766 76.0231 19.6266C76.4152 19.989 76.7274 20.4425 76.9549 20.9824C77.1897 21.5296 77.3083 22.0842 77.3083 22.6438C77.3083 23.6643 76.9259 24.5295 76.1586 25.2345C76.9017 25.4934 77.4874 25.9445 77.9158 26.5903C78.3515 27.2288 78.5669 27.9732 78.5669 28.8236C78.5669 29.9378 78.1796 30.877 77.4075 31.6461C76.9428 32.1194 76.42 32.4497 75.8415 32.6321C75.2074 32.8096 74.4135 32.9008 73.4598 32.9008H70.2625L70.2649 32.8983ZM72.3755 24.7736H73.0363C73.8205 24.7736 74.3965 24.5961 74.762 24.2436C75.1275 23.8911 75.309 23.3685 75.309 22.6808C75.309 21.993 75.1227 21.5025 74.7475 21.1549C74.3723 20.8073 73.8301 20.6348 73.1161 20.6348H72.3731V24.7761L72.3755 24.7736ZM72.3755 30.8795H73.6801C74.6337 30.8795 75.3332 30.6897 75.781 30.3076C76.253 29.8959 76.4878 29.3733 76.4878 28.7398C76.4878 28.1063 76.2603 27.6084 75.8076 27.1893C75.3671 26.7777 74.5781 26.5706 73.4429 26.5706H72.3731V30.877L72.3755 30.8795Z" fill="#520B10"/>
<path d="M81.6312 18.399V26.9773C81.6312 28.2 81.8272 29.0948 82.2193 29.6618C82.8051 30.4801 83.628 30.8893 84.6906 30.8893C85.7531 30.8893 86.5858 30.4801 87.1715 29.6618C87.5636 29.1145 87.7597 28.2197 87.7597 26.9773V18.399H89.8703V27.5665C89.8703 29.0677 89.4104 30.3027 88.4931 31.2739C87.4595 32.356 86.1937 32.8983 84.6882 32.8983C83.1827 32.8983 81.9192 32.3585 80.8929 31.2739C79.9756 30.3027 79.5157 29.0652 79.5157 27.5665V18.399H81.6263H81.6312Z" fill="#520B10"/>
<path d="M105.281 20.6792H99.6754V24.1006H105.119V26.1195H99.6754V30.8795H105.281V32.8983H97.5648V18.6578H105.281V20.6767V20.6792Z" fill="#520B10"/>
<path d="M109.13 18.6578V30.8795H113.242V32.8983H107.019V18.6578H109.13Z" fill="#520B10"/>
<path d="M129.439 17.7901V27.6873L119.242 16.8214V32.8983H121.353V22.062L131.55 32.8983V17.7901H129.439Z" fill="#520B10"/>
<path d="M142.193 29.4399H136.207L134.648 32.8983H132.375L139.295 17.763L145.971 32.8983H143.662L142.195 29.4399H142.193ZM141.333 27.421L139.259 22.5797L137.085 27.421H141.333Z" fill="#520B10"/>
<path d="M152.903 25.2173H158.68V25.6881C158.68 26.7579 158.557 27.7045 158.31 28.5278C158.068 29.2895 157.661 30.0044 157.088 30.6675C155.79 32.1563 154.137 32.9008 152.133 32.9008C150.129 32.9008 148.503 32.181 147.106 30.7414C145.712 29.2969 145.015 27.5615 145.015 25.5402C145.015 23.5189 145.724 21.7219 147.142 20.2823C148.561 18.8378 150.289 18.1155 152.322 18.1155C153.414 18.1155 154.435 18.3423 155.384 18.7983C156.289 19.2544 157.18 19.9914 158.056 21.0119L156.553 22.4786C155.406 20.9232 154.009 20.1442 152.361 20.1442C150.882 20.1442 149.64 20.6644 148.638 21.7021C147.636 22.7227 147.135 24.002 147.135 25.5402C147.135 27.0784 147.694 28.4341 148.81 29.4596C149.856 30.4136 150.986 30.8893 152.206 30.8893C153.244 30.8893 154.176 30.5319 155.004 29.8195C155.832 29.0997 156.294 28.2394 156.388 27.2361H152.9V25.2173H152.903Z" fill="#520B10"/>
<path d="M168.224 29.4399H162.238L160.68 32.8983H158.407L165.327 17.763L172.002 32.8983H169.693L168.227 29.4399H168.224ZM167.362 27.421L165.288 22.5797L163.115 27.421H167.362Z" fill="#520B10"/>
<path d="M40.4017 43.1751H42.7834V43.5276H39.9926V37.0051H40.4041V43.1751H40.4017Z" fill="#520B10"/>
<path d="M47.9825 41.1686H43.7032C43.7153 41.6197 43.8121 42.0017 43.996 42.3123C44.1776 42.6229 44.4196 42.8546 44.7173 43.0099C45.015 43.1652 45.3394 43.2416 45.6927 43.2416C46.1792 43.2416 46.5859 43.1184 46.9151 42.8744C47.2442 42.6303 47.45 42.2975 47.5347 41.876H47.9631C47.8663 42.3912 47.617 42.8053 47.2152 43.1258C46.8134 43.4438 46.3051 43.604 45.6927 43.604C45.2304 43.604 44.8165 43.498 44.4511 43.2885C44.0856 43.079 43.8 42.7758 43.5942 42.3838C43.3885 41.9894 43.2844 41.5309 43.2844 41.0034C43.2844 40.4759 43.3861 40.0174 43.5894 39.6279C43.7927 39.2384 44.0783 38.9402 44.4414 38.7306C44.8069 38.5236 45.2232 38.42 45.6903 38.42C46.1575 38.42 46.5762 38.5236 46.9272 38.7306C47.2757 38.9377 47.5419 39.2138 47.7259 39.5564C47.9074 39.8991 47.9994 40.2713 47.9994 40.6657C47.9994 40.8875 47.9921 41.0552 47.98 41.1686H47.9825ZM47.358 39.6895C47.1837 39.3789 46.9489 39.1497 46.6512 38.9969C46.3535 38.844 46.0316 38.7701 45.6831 38.7701C45.3345 38.7701 45.015 38.8465 44.7197 38.9969C44.4244 39.1497 44.1848 39.3789 43.9984 39.6895C43.8121 40.0001 43.7153 40.3773 43.7032 40.8235H47.5904C47.6097 40.3773 47.5323 40.0001 47.358 39.6895Z" fill="#520B10"/>
<path d="M52.5353 38.8046C52.9008 39.061 53.1549 39.3913 53.3025 39.7931V38.4841H53.714V43.6878C53.714 44.1512 53.6148 44.5604 53.4139 44.9105C53.213 45.2605 52.9419 45.5292 52.603 45.719C52.2618 45.9088 51.8818 46.0025 51.463 46.0025C50.8434 46.0025 50.3278 45.8497 49.9212 45.5465C49.5146 45.2433 49.2459 44.8341 49.1176 44.3189H49.5291C49.6501 44.7207 49.8777 45.0411 50.2141 45.2802C50.5481 45.5193 50.9644 45.6377 51.463 45.6377C51.8091 45.6377 52.1238 45.5588 52.4021 45.401C52.6829 45.2433 52.9032 45.0165 53.0629 44.7231C53.2251 44.4298 53.305 44.0847 53.305 43.6878V42.2113C53.1597 42.6131 52.9032 42.9458 52.5353 43.2096C52.1674 43.4734 51.7244 43.604 51.2089 43.604C50.7466 43.604 50.3351 43.498 49.972 43.2836C49.609 43.0691 49.3282 42.7659 49.1225 42.374C48.9192 41.9796 48.8175 41.5235 48.8175 41.0034C48.8175 40.4833 48.9192 40.0272 49.1225 39.6378C49.3258 39.2483 49.609 38.9476 49.972 38.7356C50.3327 38.526 50.7466 38.42 51.2089 38.42C51.7317 38.42 52.1771 38.5482 52.5401 38.8046H52.5353ZM53.0315 39.835C52.8523 39.4973 52.6079 39.2384 52.2981 39.0536C51.9883 38.8711 51.6421 38.7799 51.2573 38.7799C50.8724 38.7799 50.5021 38.8687 50.1996 39.0437C49.8946 39.2212 49.6574 39.4751 49.488 39.8103C49.3185 40.1456 49.2314 40.5424 49.2314 40.9985C49.2314 41.4545 49.3161 41.8538 49.488 42.1866C49.6574 42.5219 49.897 42.7782 50.2044 42.9582C50.5118 43.1381 50.8628 43.2269 51.2573 43.2269C51.6518 43.2269 51.9883 43.1357 52.3029 42.9532C52.6151 42.7708 52.862 42.5095 53.0363 42.1718C53.213 41.8341 53.3001 41.4422 53.3001 40.996C53.3001 40.5498 53.2106 40.1678 53.0315 39.83V39.835Z" fill="#520B10"/>
<path d="M55.084 39.6353C55.2873 39.2458 55.5705 38.9451 55.9336 38.7331C56.2942 38.5236 56.7081 38.4176 57.1704 38.4176C57.6932 38.4176 58.1386 38.5482 58.5016 38.807C58.8671 39.0683 59.1212 39.3987 59.2689 39.8005V38.4817H59.6804V43.5276H59.2689V42.1989C59.1237 42.6081 58.8671 42.9434 58.4992 43.2071C58.1313 43.4709 57.6884 43.6015 57.1728 43.6015C56.7105 43.6015 56.299 43.4955 55.936 43.2811C55.5729 43.0666 55.2921 42.7634 55.0864 42.3715C54.8831 41.9771 54.7814 41.521 54.7814 41.0009C54.7814 40.4808 54.8831 40.0248 55.0864 39.6353H55.084ZM58.9978 39.835C58.8187 39.4973 58.5742 39.2384 58.2644 39.0535C57.9546 38.8711 57.6085 38.7799 57.2236 38.7799C56.8388 38.7799 56.4685 38.8687 56.1659 39.0437C55.8609 39.2212 55.6237 39.4751 55.4543 39.8103C55.2849 40.1456 55.1977 40.5424 55.1977 40.9985C55.1977 41.4545 55.2825 41.8538 55.4543 42.1866C55.6237 42.5219 55.8634 42.7782 56.1708 42.9582C56.4781 43.1381 56.8291 43.2269 57.2236 43.2269C57.6182 43.2269 57.9546 43.1356 58.2693 42.9532C58.5815 42.7708 58.8284 42.5095 59.0026 42.1718C59.1793 41.8341 59.2665 41.4422 59.2665 40.996C59.2665 40.5498 59.1769 40.1677 58.9978 39.83V39.835Z" fill="#520B10"/>
<path d="M61.411 36.6526V43.5276H60.9995V36.6526H61.411Z" fill="#520B10"/>
<path d="M68.7714 41.8563H65.7338L65.1214 43.5276H64.6737L67.0263 37.153H67.4814L69.8267 43.5276H69.379L68.769 41.8563H68.7714ZM68.6456 41.5013L67.2587 37.7027L65.8621 41.5013H68.6456Z" fill="#520B10"/>
<path d="M70.7393 39.6353C70.9426 39.2458 71.2258 38.9451 71.5888 38.7331C71.9495 38.5236 72.3634 38.4176 72.8257 38.4176C73.3315 38.4176 73.7672 38.5458 74.14 38.8021C74.5103 39.0585 74.7717 39.3913 74.9242 39.8005V36.6501H75.3356V43.5251H74.9242V42.1866C74.7789 42.6007 74.5224 42.9409 74.1569 43.2047C73.7914 43.4684 73.3485 43.5991 72.8257 43.5991C72.3634 43.5991 71.9519 43.4931 71.5888 43.2786C71.2258 43.0642 70.945 42.761 70.7393 42.369C70.536 41.9746 70.4343 41.5186 70.4343 40.9985C70.4343 40.4783 70.536 40.0223 70.7393 39.6328V39.6353ZM74.6531 39.835C74.474 39.4973 74.2295 39.2384 73.9197 39.0536C73.6099 38.8711 73.2638 38.7799 72.8789 38.7799C72.4941 38.7799 72.1238 38.8687 71.8212 39.0437C71.5162 39.2212 71.279 39.4751 71.1096 39.8103C70.9402 40.1456 70.853 40.5424 70.853 40.9985C70.853 41.4545 70.9377 41.8538 71.1096 42.1866C71.279 42.5219 71.5186 42.7782 71.826 42.9582C72.1334 43.1381 72.4844 43.2269 72.8789 43.2269C73.2735 43.2269 73.6099 43.1357 73.9245 42.9532C74.2368 42.7708 74.4837 42.5095 74.6579 42.1718C74.8346 41.8341 74.9218 41.4422 74.9218 40.996C74.9218 40.5498 74.8322 40.1678 74.6531 39.83V39.835Z" fill="#520B10"/>
<path d="M78.3321 43.0716L80.1571 38.4817H80.5952L78.5427 43.5276H78.1143L76.0618 38.4817H76.5095L78.3345 43.0716H78.3321Z" fill="#520B10"/>
<path d="M81.2875 37.2615C81.2197 37.1974 81.1882 37.1086 81.1882 36.9977C81.1882 36.8917 81.2221 36.8054 81.2875 36.7364C81.3528 36.6674 81.4375 36.6353 81.5344 36.6353C81.6312 36.6353 81.7135 36.6699 81.7812 36.7364C81.849 36.8054 81.8805 36.8917 81.8805 36.9977C81.8805 37.1086 81.8466 37.1974 81.7812 37.2615C81.7135 37.3256 81.6312 37.3601 81.5344 37.3601C81.4375 37.3601 81.3552 37.328 81.2875 37.2615ZM81.7353 38.4817V43.5276H81.3238V38.4817H81.7353Z" fill="#520B10"/>
<path d="M83.3642 43.2293C83.0132 42.9803 82.8171 42.6278 82.776 42.1693H83.1947C83.2262 42.4972 83.3714 42.7585 83.6377 42.9508C83.9015 43.143 84.2621 43.2392 84.7196 43.2392C85.0972 43.2392 85.3949 43.1406 85.6176 42.9458C85.8403 42.7511 85.9516 42.512 85.9516 42.226C85.9516 42.0288 85.8935 41.8662 85.7749 41.738C85.6563 41.6123 85.5087 41.5136 85.332 41.4446C85.1553 41.3756 84.9157 41.3017 84.6107 41.2228C84.2452 41.1242 83.9499 41.0256 83.7248 40.9294C83.4997 40.8333 83.3085 40.6903 83.1512 40.4981C82.9938 40.3058 82.914 40.0494 82.914 39.7265C82.914 39.4923 82.9842 39.2729 83.1245 39.0708C83.2649 38.8687 83.4586 38.7109 83.7079 38.5926C83.9572 38.4743 84.2404 38.4151 84.5574 38.4151C85.0754 38.4151 85.4917 38.5457 85.8112 38.8095C86.1307 39.0733 86.3026 39.4356 86.3268 39.9015H85.9153C85.8959 39.5663 85.7701 39.2951 85.5329 39.0831C85.2957 38.8736 84.9665 38.7676 84.5478 38.7676C84.1944 38.7676 83.9039 38.8613 83.6716 39.0461C83.4392 39.231 83.3254 39.4578 83.3254 39.724C83.3254 39.9607 83.3908 40.1505 83.5215 40.2959C83.6522 40.4414 83.8144 40.5523 84.0056 40.6312C84.1968 40.7076 84.4509 40.7914 84.768 40.8777C85.1141 40.9713 85.3925 41.0625 85.6031 41.1513C85.8136 41.24 85.9903 41.3707 86.138 41.5408C86.2832 41.7109 86.3558 41.9401 86.3558 42.2236C86.3558 42.4849 86.2856 42.719 86.1452 42.9286C86.0048 43.1381 85.8112 43.3033 85.5619 43.4216C85.3126 43.5399 85.0318 43.5991 84.722 43.5991C84.1677 43.5991 83.7175 43.4758 83.3666 43.2268L83.3642 43.2293Z" fill="#520B10"/>
<path d="M88.3575 43.286C87.9872 43.0765 87.6967 42.7733 87.4862 42.3813C87.2756 41.9869 87.1715 41.5284 87.1715 41.0009C87.1715 40.4734 87.278 40.0248 87.491 39.6304C87.704 39.236 87.9969 38.9377 88.372 38.7282C88.7472 38.5211 89.1635 38.4176 89.6258 38.4176C90.0881 38.4176 90.5044 38.5211 90.8748 38.7282C91.2451 38.9352 91.5355 39.2335 91.7461 39.6254C91.9567 40.0149 92.0608 40.4734 92.0608 41.0009C92.0608 41.5284 91.9543 41.9869 91.7413 42.3813C91.5283 42.7757 91.2354 43.0765 90.8602 43.286C90.4851 43.4955 90.0688 43.6015 89.6065 43.6015C89.1442 43.6015 88.7278 43.4955 88.3575 43.286ZM90.6158 42.9853C90.928 42.8201 91.1797 42.5712 91.3685 42.2384C91.5573 41.9031 91.6517 41.4915 91.6517 41.0034C91.6517 40.5153 91.5573 40.111 91.3685 39.7758C91.1797 39.4406 90.9304 39.1916 90.6206 39.0289C90.3108 38.8637 89.9768 38.7824 89.6161 38.7824C89.2555 38.7824 88.9239 38.8637 88.6165 39.0289C88.3091 39.1941 88.0622 39.443 87.8734 39.7758C87.6846 40.111 87.5902 40.5202 87.5902 41.0034C87.5902 41.4865 87.6822 41.9056 87.8686 42.2384C88.055 42.5736 88.2994 42.8226 88.6068 42.9853C88.9142 43.1504 89.2458 43.2318 89.6065 43.2318C89.9671 43.2318 90.3011 43.1504 90.6133 42.9853H90.6158Z" fill="#520B10"/>
<path d="M94.1956 38.6739C94.5054 38.4792 94.8999 38.3806 95.3816 38.3806V38.8169H95.2436C94.7571 38.8169 94.3529 38.9574 94.031 39.2384C93.7091 39.5194 93.5469 39.9804 93.5469 40.6188V43.5276H93.1354V38.4817H93.5469V39.5219C93.6679 39.1497 93.8833 38.8662 94.1956 38.6715V38.6739Z" fill="#520B10"/>
<path d="M96.4538 43.2293C96.1029 42.9803 95.9068 42.6278 95.8657 42.1693H96.2844C96.3159 42.4972 96.4611 42.7585 96.7273 42.9508C96.9912 43.143 97.3518 43.2392 97.8093 43.2392C98.1868 43.2392 98.4846 43.1406 98.7072 42.9458C98.9299 42.7511 99.0413 42.512 99.0413 42.226C99.0413 42.0288 98.9832 41.8662 98.8646 41.738C98.746 41.6123 98.5983 41.5136 98.4216 41.4446C98.2449 41.3756 98.0053 41.3017 97.7003 41.2228C97.3349 41.1242 97.0396 41.0256 96.8145 40.9294C96.5894 40.8333 96.3982 40.6903 96.2408 40.4981C96.0835 40.3058 96.0036 40.0494 96.0036 39.7265C96.0036 39.4923 96.0738 39.2729 96.2142 39.0708C96.3546 38.8687 96.5482 38.7109 96.7975 38.5926C97.0468 38.4743 97.33 38.4151 97.6471 38.4151C98.1651 38.4151 98.5814 38.5457 98.9009 38.8095C99.2204 39.0733 99.3922 39.4356 99.4164 39.9015H99.0049C98.9856 39.5663 98.8597 39.2951 98.6225 39.0831C98.3853 38.8736 98.0561 38.7676 97.6374 38.7676C97.284 38.7676 96.9936 38.8613 96.7612 39.0461C96.5289 39.231 96.4151 39.4578 96.4151 39.724C96.4151 39.9607 96.4804 40.1505 96.6111 40.2959C96.7419 40.4414 96.904 40.5523 97.0952 40.6312C97.2864 40.7076 97.5406 40.7914 97.8577 40.8777C98.2038 40.9713 98.4821 41.0625 98.6927 41.1513C98.9033 41.24 99.08 41.3707 99.2276 41.5408C99.3728 41.7109 99.4455 41.9401 99.4455 42.2236C99.4455 42.4849 99.3753 42.719 99.2349 42.9286C99.0945 43.1381 98.9009 43.3033 98.6516 43.4216C98.4023 43.5399 98.1215 43.5991 97.8117 43.5991C97.2574 43.5991 96.8072 43.4758 96.4562 43.2268L96.4538 43.2293Z" fill="#520B10"/>
<path d="M17.7707 15.2438H12.3611V21.0982H17.7707V15.2438Z" fill="#520B10"/>
<path d="M0 0V46H30.2093V0H0ZM24.7149 40.4019H5.49436V39.2113C5.49436 38.5876 5.99054 38.0798 6.60533 38.0798H23.6064C24.2187 38.0798 24.7173 38.5876 24.7173 39.2113V40.4019H24.7149ZM12.3611 23.4203V32.4965H12.8307V33.0758H9.61634V32.4965H10.0859V12.9242H20.0508V32.4965H20.5179V33.0758H17.3036V32.4965H17.7732V23.4203H12.3635H12.3611ZM8.88053 11.7631C8.26816 11.7631 7.77197 11.2553 7.77197 10.6317V9.44108H22.4325V10.6317C22.4325 11.2553 21.9363 11.7631 21.3239 11.7631H8.87811H8.88053ZM8.88053 34.2369H21.3263C21.9387 34.2369 22.4349 34.7422 22.4349 35.3683V36.5589H7.77439V35.3683C7.77439 34.7422 8.27058 34.2369 8.88295 34.2369H8.88053ZM24.7149 6.78624C24.7149 7.40989 24.2163 7.91769 23.604 7.91769H6.60533C5.99054 7.91769 5.49436 7.40989 5.49436 6.78624V5.59563H24.7149V6.78624Z" fill="#520B10"/>
</g>
<defs>
<clipPath id="clip0_2019_304">
<rect width="172" height="46" fill="white"/>
</clipPath>
</defs>
</svg>
